<svg version="1.1" id="Layer_1" xmlns="http://www.w3.org/2000/svg" xmlns:xlink="http://www.w3.org/1999/xlink" x="0px" y="0px" width="100%" viewBox="0 0 1024 1024" enable-background="new 0 0 1024 1024" xml:space="preserve">

<path fill="#6DB0B9" opacity="1.000000" stroke="none" d="
M499.094513,661.825317 
	C487.180328,661.006531 475.807190,658.037354 465.159210,652.670837 
	C435.475769,637.710327 414.975922,614.590759 406.909882,582.216980 
	C391.387909,519.918030 431.309021,467.778809 485.611420,454.946381 
	C490.129913,453.878632 494.693756,453.002960 499.944458,452.348389 
	C509.403900,452.497742 518.155396,452.336700 526.906921,452.175629 
	C562.599365,456.882385 590.633789,473.491089 609.441101,504.794739 
	C620.536316,523.262268 624.681396,543.384155 622.828918,564.455811 
	C619.904297,597.722656 604.264771,623.935425 576.807434,643.217834 
	C562.512695,653.256470 546.579712,658.614380 528.954346,661.511719 
	C523.761108,661.177429 519.284912,660.933777 514.815857,661.028992 
	C509.572113,661.140625 504.334686,661.546814 499.094513,661.825317 
z" data-index="1" style="opacity: 1;"></path>
<path fill="#6EB1BA" opacity="1.000000" stroke="none" d="
M285.024475,307.947601 
	C279.637482,302.495972 281.251312,294.352905 288.669830,291.135895 
	C297.248260,287.415955 306.023438,284.152222 314.682770,280.616028 
	C336.767944,271.597046 358.828064,262.516754 380.913513,253.498459 
	C404.321228,243.940231 427.750275,234.434280 451.162933,224.888184 
	C469.388153,217.457169 487.600281,209.994095 505.823242,202.557541 
	C510.846222,200.507736 515.695374,200.785385 520.768372,202.900604 
	C549.637939,214.937943 578.545837,226.885162 607.505676,238.703812 
	C639.084473,251.591293 670.729553,264.316467 702.355408,277.088501 
	C713.407898,281.552063 724.489807,285.943054 735.557129,290.369873 
	C744.589539,293.982727 746.993958,299.362305 742.285767,306.968384 
	C741.482849,307.524384 741.256104,307.814209 741.029419,308.104004 
	C741.029419,308.104004 741.052856,308.030121 740.650940,308.034119 
	C737.134766,308.359009 734.021179,308.951111 730.906128,308.958527 
	C701.496033,309.028687 672.085571,308.980499 642.675415,309.041840 
	C640.782104,309.045776 638.890015,309.673645 636.528931,310.005249 
	C557.705872,309.993713 479.351227,309.988159 400.692566,309.699097 
	C398.579895,309.277863 396.771271,309.021667 394.962494,309.020111 
	C364.676178,308.994171 334.389679,309.058807 304.103760,308.951080 
	C297.742859,308.928467 291.384186,308.298004 285.024475,307.947601 
z" data-index="2"></path>
<path fill="#84BEB7" opacity="1.000000" stroke="none" d="
M333.959595,336.867828 
	C335.461731,335.262695 336.713501,333.264771 338.509216,332.120148 
	C346.480347,327.039185 359.702240,329.787231 364.625885,337.955994 
	C364.647797,346.657318 364.765411,354.773407 365.054443,362.883423 
	C365.113892,364.551270 365.813507,366.196289 366.218079,367.851837 
	C366.143036,369.023224 366.067993,370.194611 365.661285,371.957245 
	C364.655884,375.220856 363.733826,377.859222 363.362000,380.572937 
	C362.666351,385.650330 362.289734,390.771454 361.780396,395.874359 
	C354.677277,431.401520 337.934601,460.564056 307.684479,481.832428 
	C294.584381,491.042847 282.156311,501.718048 271.259308,513.435608 
	C254.232117,531.745056 244.871933,554.181458 240.909607,579.013733 
	C235.889069,610.477966 243.024353,639.554077 257.753174,666.963379 
	C275.719025,700.396484 303.220062,724.329773 336.162811,742.356201 
	C337.719971,743.208252 340.210388,743.024841 342.067535,742.548828 
	C353.241577,739.684204 364.226868,739.044922 374.062225,746.210754 
	C382.044373,752.026550 386.512848,759.822510 387.183594,770.141907 
	C388.620667,792.250610 374.425964,803.792603 355.865173,805.560608 
	C349.905975,806.128235 342.895996,803.106079 337.435516,799.903748 
	C326.393097,793.428040 322.684204,782.321228 322.035767,770.071960 
	C321.970459,768.838257 322.675690,767.563782 323.112823,765.984924 
	C318.066193,762.818481 312.802643,759.895874 307.957092,756.394714 
	C298.539734,749.590149 289.205994,742.650940 280.109863,735.424866 
	C263.379150,722.133972 250.288864,705.598083 239.245758,687.483887 
	C230.018860,672.348755 223.141525,656.191345 218.720245,638.876221 
	C213.958557,620.227783 212.648010,601.283997 214.263550,582.419067 
	C216.495880,556.351440 225.789902,532.505066 241.226303,511.112976 
	C249.263443,499.974884 258.269745,489.800873 268.641907,480.868835 
	C275.220276,475.203827 282.038330,469.792450 288.994934,464.596741 
	C301.317841,455.393158 310.686798,443.611084 316.456787,429.661438 
	C322.130219,415.945160 325.906708,401.436981 330.332977,387.219452 
	C331.050812,384.913788 330.820343,382.312866 331.468323,379.301514 
	C332.270630,377.226807 332.903137,375.707642 332.952332,374.169800 
	C333.350037,361.737793 333.638092,349.302277 333.959595,336.867828 
z" data-index="3" style="opacity: 1;"></path>
<path fill="#84BEB6" opacity="1.000000" stroke="none" d="
M441.169769,354.122986 
	C441.141174,350.459869 440.919556,346.786041 441.122467,343.135803 
	C441.607727,334.406769 447.833344,329.457245 457.617462,329.804474 
	C465.793152,330.094604 471.220703,335.631592 471.122101,343.925385 
	C470.861053,365.886414 470.731567,387.848297 464.946991,409.316101 
	C458.391479,433.645142 445.260010,452.815552 423.594391,466.444672 
	C403.611389,479.015320 383.675842,491.871094 365.018646,506.283234 
	C344.581116,522.070618 331.512878,543.149231 332.171173,569.984192 
	C332.944702,601.515076 345.942413,627.646057 369.609100,648.694031 
	C382.285858,659.968140 396.104919,669.357483 411.145996,677.016968 
	C413.140625,678.032715 415.951721,678.521790 418.086365,678.010193 
	C431.411865,674.816528 444.692322,681.716125 449.821777,694.846985 
	C454.464325,706.731506 448.541199,721.317993 436.960632,727.617920 
	C425.513092,733.845337 412.009033,731.409790 404.306213,722.797485 
	C398.851929,716.699280 396.555084,709.184509 397.435364,701.137512 
	C397.762604,698.146179 396.461151,697.509521 394.667816,696.235901 
	C380.309601,686.038269 365.107147,676.791931 351.896088,665.267822 
	C327.515900,644.000916 312.002106,617.156067 309.024994,584.390137 
	C306.643036,558.174133 311.936676,533.540161 327.528137,511.728119 
	C337.951782,497.145660 351.713409,486.147736 366.241058,476.020752 
	C380.848877,465.837982 395.834534,456.173096 410.133911,445.578522 
	C426.321991,433.584656 434.886139,416.781982 437.921875,397.050049 
	C438.755707,391.630280 439.396576,386.180817 440.583557,380.207611 
	C441.084045,371.154480 441.126892,362.638733 441.169769,354.122986 
z" data-index="4" style="opacity: 1;"></path>
<path fill="#A1B1D0" opacity="1.000000" stroke="none" d="
M744.041992,471.930939 
	C767.039978,488.582672 785.767517,508.944641 797.852112,534.865906 
	C805.618896,551.525330 810.204102,568.883240 811.339783,587.509827 
	C812.666016,609.259155 810.029663,630.134583 803.159790,650.623962 
	C795.247437,674.222595 782.641602,695.077271 766.587341,714.055603 
	C749.402344,734.370605 728.815735,750.349243 705.835510,763.440002 
	C703.403625,764.825256 702.619873,766.156067 702.836365,769.236633 
	C704.192871,788.540466 692.624023,803.416504 672.485901,805.446655 
	C657.783081,806.928955 644.221252,797.176453 640.068848,782.516785 
	C633.441528,759.119934 649.736694,741.635925 669.513611,740.420227 
	C674.617371,740.106567 679.853027,742.332397 685.064453,743.164062 
	C686.862793,743.451111 689.123474,743.677551 690.578125,742.865845 
	C723.507874,724.487976 750.447388,699.914734 768.911682,666.636047 
	C781.337524,644.240479 788.114868,620.219482 787.783264,594.659485 
	C787.408752,565.787598 777.733398,539.785950 759.040955,517.784546 
	C750.485107,507.714081 740.026306,499.260315 730.119019,489.566284 
	C729.194153,488.710022 728.580688,488.360809 727.967285,488.011597 
	C727.657104,487.959900 727.394287,487.819489 727.087708,487.011536 
	C728.377869,484.473633 729.403259,482.057861 731.212585,480.648346 
	C735.282654,477.477661 739.741455,474.805817 744.041992,471.930939 
z" data-index="5"></path>
<path fill="#A1B1D0" opacity="1.000000" stroke="none" d="
M701.516602,516.909912 
	C710.226074,529.890930 714.549316,544.249634 716.242981,559.765747 
	C718.820129,583.377014 714.134766,605.398804 703.210083,626.188965 
	C692.355347,646.846008 677.290894,664.013611 658.386841,677.673096 
	C649.640320,683.992920 640.536194,689.828003 631.458862,695.672729 
	C629.206116,697.123230 628.667542,698.369629 628.794250,701.161682 
	C629.562927,718.101074 617.862610,734.519104 596.624878,730.660889 
	C586.432617,728.809326 579.626892,720.995483 577.250427,710.181885 
	C574.050293,695.619812 582.297119,680.327026 596.862732,677.640076 
	C600.036804,677.054565 603.668823,676.704834 606.615051,677.680542 
	C610.606873,679.002686 613.606567,677.901245 616.841064,676.128662 
	C631.935547,667.856201 646.061035,658.050110 658.257751,646.012390 
	C674.734741,629.750183 686.722412,610.691956 691.257690,587.370789 
	C693.255005,577.099915 693.969604,566.883545 692.661499,556.687805 
	C690.922180,543.130676 684.579163,531.351074 676.494507,520.327881 
	C682.613831,519.911011 688.533264,520.025085 694.401733,519.531982 
	C696.829651,519.328003 699.148254,517.823120 701.516602,516.909912 
z" data-index="6"></path>
<path fill="#70B1BA" opacity="1.000000" stroke="none" d="
M556.055969,369.020599 
	C556.019775,368.261017 555.983582,367.501434 556.279419,366.065857 
	C556.719666,356.230347 556.827698,347.070862 556.935791,337.911346 
	C556.935791,337.911346 556.956238,337.985870 557.191772,337.823853 
	C557.595398,337.073608 557.763428,336.485382 557.931458,335.897156 
	C557.931458,335.897156 557.972534,335.961761 558.195374,335.826477 
	C558.588135,335.340271 558.758118,334.989349 558.928101,334.638428 
	C566.787476,326.010223 579.396240,328.289795 584.651001,340.002441 
	C584.524170,347.416046 584.695496,354.170074 584.866821,360.924072 
	C585.166931,362.390045 585.467041,363.855988 585.558716,366.000946 
	C585.350281,372.685028 585.350281,378.690125 585.350281,384.695221 
	C585.579834,384.694427 585.809387,384.693634 586.038940,384.692841 
	C586.038940,382.440186 586.038940,380.187561 586.038940,377.934906 
	C587.092346,385.274323 587.931458,392.652161 589.238464,399.946106 
	C593.556152,424.041443 607.071655,441.528229 627.596130,454.479370 
	C647.400818,466.976349 667.680969,478.940277 684.396179,495.727325 
	C687.074463,498.417114 689.478333,501.380188 691.714478,504.625366 
	C687.196533,507.885376 682.384766,508.287323 677.558838,507.934814 
	C673.456543,507.635162 670.162903,508.511475 667.939575,512.165710 
	C655.113037,502.736084 642.429504,493.103516 629.418030,483.936310 
	C617.427063,475.488098 604.644775,468.116394 592.993530,459.243042 
	C572.988342,444.007507 563.565186,422.455475 559.146301,398.334808 
	C558.698547,395.890961 558.324402,393.433594 558.159424,390.310608 
	C558.180542,383.336121 558.001709,377.031189 557.665527,370.734680 
	C557.633545,370.136383 556.615967,369.590729 556.055969,369.020599 
z" data-index="7" style="opacity: 1;"></path>
<path fill="#70B2BB" opacity="1.000000" stroke="none" d="
M712.921814,477.059601 
	C686.284607,457.821716 673.666626,430.254700 667.140320,399.252777 
	C665.170105,389.893921 664.355713,380.291779 663.330811,370.063446 
	C663.770813,363.593506 664.030579,357.859497 663.963074,352.129395 
	C663.919617,348.440826 663.395203,344.757874 663.086365,341.072418 
	C665.360657,332.841888 669.899170,329.725952 679.373596,329.890442 
	C686.698059,330.017639 691.605835,334.061279 693.148254,341.669128 
	C693.768066,344.726196 693.970459,347.924286 693.922852,351.051483 
	C693.491638,379.339172 697.763306,406.666962 709.958984,432.475922 
	C714.823669,442.770782 721.404602,451.794434 729.211914,460.514221 
	C727.494141,463.330750 726.151855,465.857941 724.176575,467.710175 
	C720.625305,471.040253 716.694214,473.965302 712.921814,477.059601 
z" data-index="8" style="opacity: 1;"></path>
<path fill="#89B0C6" opacity="1.000000" stroke="none" d="
M713.161621,477.291656 
	C716.694214,473.965302 720.625305,471.040253 724.176575,467.710175 
	C726.151855,465.857941 727.494141,463.330750 729.403198,460.794250 
	C734.326599,464.130096 738.968506,467.779480 743.826233,471.679901 
	C739.741455,474.805817 735.282654,477.477661 731.212585,480.648346 
	C729.403259,482.057861 728.377869,484.473633 726.967896,486.819153 
	C722.426575,483.978363 717.913940,480.751038 713.161621,477.291656 
z" data-index="9"></path>
<path fill="#89B0C6" opacity="1.000000" stroke="none" d="
M668.093079,512.453003 
	C670.162903,508.511475 673.456543,507.635162 677.558838,507.934814 
	C682.384766,508.287323 687.196533,507.885376 691.784180,504.963440 
	C692.148438,504.893097 692.094604,504.957733 692.164551,505.172974 
	C692.517029,505.580444 692.799683,505.772644 693.082275,505.964813 
	C693.082275,505.964813 693.007751,505.950623 693.060181,506.264771 
	C693.775635,507.030579 694.438599,507.482269 695.101624,507.933960 
	C695.101624,507.933929 695.048035,507.985840 695.144714,508.194031 
	C695.519897,508.615387 695.798340,508.828552 696.076843,509.041718 
	C697.787048,511.444763 699.497253,513.847778 701.362000,516.580322 
	C699.148254,517.823120 696.829651,519.328003 694.401733,519.531982 
	C688.533264,520.025085 682.613831,519.911011 676.291992,520.052002 
	C673.328308,517.621582 670.787415,515.180969 668.093079,512.453003 
z" data-index="10"></path>
<path fill="#4FA2B0" opacity="1.000000" stroke="none" d="
M400.996582,309.982635 
	C479.351227,309.988159 557.705872,309.993713 636.526855,310.217255 
	C636.993225,310.435272 636.985474,310.859436 636.985474,310.859436 
	C636.285034,311.018738 635.584534,311.178040 634.120361,311.216980 
	C632.525940,311.158051 631.695312,311.219482 630.864685,311.280914 
	C629.229553,311.283569 627.594360,311.286224 625.130005,311.177155 
	C623.154541,311.134521 622.008240,311.203613 620.861938,311.272705 
	C619.858459,311.260529 618.854980,311.248322 617.015625,311.116608 
	C612.435669,311.037323 608.691589,311.077576 604.947571,311.117798 
	C603.586487,311.118683 602.225403,311.119598 600.042969,311.035889 
	C597.825684,310.991455 596.429626,311.031647 594.564697,311.052246 
	C588.727844,311.244080 583.359863,311.455475 577.991882,311.666870 
	C576.279968,311.689178 574.568054,311.711517 572.159485,311.500244 
	C569.969666,311.401520 568.476501,311.536407 566.983337,311.671265 
	C564.300659,311.691925 561.617981,311.712616 558.377136,311.565247 
	C557.473083,311.247040 557.184021,311.324738 556.951904,311.630310 
	C555.897156,311.655518 554.842407,311.680756 553.103638,311.470276 
	C550.609741,311.369812 548.799927,311.505066 546.990112,311.640289 
	C545.938049,311.677063 544.886047,311.713806 543.328125,311.585297 
	C542.532166,311.498199 542.242065,311.576385 541.951965,311.654602 
	C540.900146,311.681824 539.848267,311.709045 538.156006,311.511780 
	C536.338379,311.412506 535.161133,311.537720 533.983948,311.662903 
	C532.922241,311.694275 531.860596,311.725647 530.090454,311.510193 
	C526.916504,311.408325 524.451050,311.553284 521.985535,311.698212 
	C519.954102,311.705902 517.922729,311.713593 515.282593,311.520386 
	C514.105896,311.430115 513.537903,311.540741 512.969971,311.651337 
	C508.290009,311.680481 503.610016,311.709625 498.144897,311.490173 
	C494.571533,311.369324 491.783325,311.497070 488.995148,311.624847 
	C483.979889,311.648224 478.964600,311.671570 473.311462,311.492981 
	C472.106232,311.394012 471.538849,311.497009 470.971497,311.600037 
	C466.295746,311.630798 461.619965,311.661591 456.308960,311.487610 
	C455.108307,311.376068 454.542938,311.469330 453.977539,311.562622 
	C453.538666,311.590454 453.099823,311.618256 452.081787,311.450348 
	C450.336090,311.348999 449.169586,311.443359 448.003052,311.537720 
	C445.953094,311.559723 443.903137,311.581726 441.137024,311.396332 
	C438.948212,311.309326 437.475586,311.429718 436.002930,311.550110 
	C435.246735,311.587952 434.490540,311.625732 433.031128,311.423584 
	C429.554382,311.312653 426.780884,311.441620 424.007385,311.570587 
	C422.611664,311.604156 421.215912,311.637726 419.085815,311.438080 
	C415.906250,311.312408 413.461121,311.419952 411.015961,311.527466 
	C410.257965,311.564911 409.499939,311.602325 408.054718,311.415802 
	C405.896027,311.142761 404.424530,311.093689 402.953064,311.044586 
	C402.520599,311.015533 402.088104,310.986481 401.330139,310.684204 
	C401.004669,310.410980 400.996582,309.982635 400.996582,309.982635 
z" data-index="11"></path>
<path fill="#5EA8B4" opacity="1.000000" stroke="none" d="
M400.692566,309.699097 
	C400.996582,309.982635 401.004669,310.410980 401.010498,310.625061 
	C364.559265,310.888855 328.102112,310.978088 291.645386,310.884583 
	C289.576721,310.879272 287.511932,309.375488 285.234924,308.258362 
	C291.384186,308.298004 297.742859,308.928467 304.103760,308.951080 
	C334.389679,309.058807 364.676178,308.994171 394.962494,309.020111 
	C396.771271,309.021667 398.579895,309.277863 400.692566,309.699097 
z" data-index="12"></path>
<path fill="#5EA8B4" opacity="1.000000" stroke="none" d="
M637.453003,310.908386 
	C636.985474,310.859436 636.993225,310.435272 636.995300,310.223267 
	C638.890015,309.673645 640.782104,309.045776 642.675415,309.041840 
	C672.085571,308.980499 701.496033,309.028687 730.906128,308.958527 
	C734.021179,308.951111 737.134766,308.359009 740.681152,308.058411 
	C738.277527,309.045105 735.446777,310.834503 732.605164,310.851898 
	C701.044556,311.045258 669.482300,310.964233 637.453003,310.908386 
z" data-index="13"></path>
<path fill="#6DB0B9" opacity="1.000000" stroke="none" d="
M333.666901,337.074951 
	C333.638092,349.302277 333.350037,361.737793 332.952332,374.169800 
	C332.903137,375.707642 332.270630,377.226807 331.529785,378.855469 
	C331.177612,366.715851 331.123566,354.474030 331.325165,342.236420 
	C331.352600,340.574188 332.659668,338.933014 333.666901,337.074951 
z" data-index="14"></path>
<path fill="#6DB0B9" opacity="1.000000" stroke="none" d="
M366.387756,367.422607 
	C365.813507,366.196289 365.113892,364.551270 365.054443,362.883423 
	C364.765411,354.773407 364.647797,346.657318 364.718781,338.286560 
	C365.598969,340.535675 366.712250,343.030701 366.768982,345.549530 
	C366.929749,352.692261 366.658508,359.844727 366.387756,367.422607 
z" data-index="15"></path>

<path fill="#6DB0B9" opacity="1.000000" stroke="none" d="
M361.894348,395.500977 
	C362.289734,390.771454 362.666351,385.650330 363.362000,380.572937 
	C363.733826,377.859222 364.655884,375.220856 365.604431,372.310791 
	C364.588928,379.757935 363.298615,387.442780 361.894348,395.500977 
z" data-index="17"></path>
<path fill="#5EA8B4" opacity="1.000000" stroke="none" d="
M556.008667,369.474609 
	C556.615967,369.590729 557.633545,370.136383 557.665527,370.734680 
	C558.001709,377.031189 558.180542,383.336121 558.080322,389.901733 
	C557.158997,383.419373 556.560242,376.674011 556.008667,369.474609 
z" data-index="18"></path>
<path fill="#5EA8B4" opacity="1.000000" stroke="none" d="
M441.118408,354.579041 
	C441.126892,362.638733 441.084045,371.154480 440.682129,379.780884 
	C440.571045,371.606049 440.819031,363.320587 441.118408,354.579041 
z" data-index="19"></path>
<path fill="#4FA2B0" opacity="1.000000" stroke="none" d="
M499.551300,661.896484 
	C504.334686,661.546814 509.572113,661.140625 514.815857,661.028992 
	C519.284912,660.933777 523.761108,661.177429 528.551086,661.517944 
	C519.247986,661.832397 509.628052,661.900085 499.551300,661.896484 
z" data-index="20"></path>
<path fill="#4FA2B0" opacity="1.000000" stroke="none" d="
M663.076050,341.040771 
	C663.395203,344.757874 663.919617,348.440826 663.963074,352.129395 
	C664.030579,357.859497 663.770813,363.593506 663.367676,369.622986 
	C663.085510,369.920105 663.065796,369.988068 663.052002,369.518616 
	C662.958191,364.666962 662.878174,360.284760 662.798096,355.902588 
	C662.792725,355.502014 662.787415,355.101410 662.877930,353.963623 
	C662.910034,351.450928 662.846252,349.675507 662.782471,347.900055 
	C662.784241,347.201202 662.786011,346.502319 662.879639,345.053040 
	C662.981689,343.211090 662.991760,342.119629 663.001892,341.028137 
	C663.001892,341.028137 663.065735,341.009094 663.076050,341.040771 
z" data-index="21"></path>
<path fill="#4FA2B0" opacity="1.000000" stroke="none" d="
M526.453003,452.083496 
	C518.155396,452.336700 509.403900,452.497742 500.353638,452.375671 
	C508.702942,452.058838 517.351013,452.025116 526.453003,452.083496 
z" data-index="22"></path>
<path fill="#4FA2B0" opacity="1.000000" stroke="none" d="
M584.910767,360.463135 
	C584.695496,354.170074 584.524170,347.416046 584.630615,340.360260 
	C584.923828,346.706390 584.939331,353.354309 584.910767,360.463135 
z" data-index="23"></path>
<path fill="#4FA2B0" opacity="1.000000" stroke="none" d="
M586.041870,377.479706 
	C586.038940,380.187561 586.038940,382.440186 586.038940,384.692841 
	C585.809387,384.693634 585.579834,384.694427 585.350281,384.695221 
	C585.350281,378.690125 585.350281,372.685028 585.621460,366.375061 
	C585.943359,369.721619 585.994080,373.373047 586.041870,377.479706 
z" data-index="24"></path>
<path fill="#89B0C6" opacity="1.000000" stroke="none" d="
M578.447632,311.778015 
	C583.359863,311.455475 588.727844,311.244080 594.550171,311.228149 
	C595.004456,311.423584 594.981201,311.776886 594.981201,311.776855 
	C589.621887,311.814301 584.262634,311.851746 578.447632,311.778015 
z" data-index="25"></path>

<path fill="#A1B1D0" opacity="1.000000" stroke="none" d="
M605.299561,311.309448 
	C608.691589,311.077576 612.435669,311.037323 616.639771,311.095245 
	C613.283752,311.295990 609.467590,311.398529 605.299561,311.309448 
z" data-index="27"></path>
<path fill="#89B0C6" opacity="1.000000" stroke="none" d="
M424.441345,311.697418 
	C426.780884,311.441620 429.554382,311.312653 432.654968,311.371155 
	C430.279816,311.647186 427.577576,311.735718 424.441345,311.697418 
z" data-index="28"></path>
<path fill="#89B0C6" opacity="1.000000" stroke="none" d="
M489.433411,311.739075 
	C491.783325,311.497070 494.571533,311.369324 497.681519,311.447052 
	C495.292786,311.719482 492.582214,311.786407 489.433411,311.739075 
z" data-index="29"></path>
<path fill="#89B0C6" opacity="1.000000" stroke="none" d="
M411.442078,311.660278 
	C413.461121,311.419952 415.906250,311.312408 418.668945,311.392334 
	C416.613708,311.650879 414.240967,311.721954 411.442078,311.660278 
z" data-index="30"></path>
<path fill="#89B0C6" opacity="1.000000" stroke="none" d="
M522.421387,311.802460 
	C524.451050,311.553284 526.916504,311.408325 529.693604,311.471558 
	C527.622498,311.755402 525.239868,311.831055 522.421387,311.802460 
z" data-index="31"></path>
<path fill="#89B0C6" opacity="1.000000" stroke="none" d="
M547.409668,311.750305 
	C548.799927,311.505066 550.609741,311.369812 552.709412,311.426117 
	C551.275940,311.698547 549.552612,311.779419 547.409668,311.750305 
z" data-index="32"></path>

<path fill="#89B0C6" opacity="1.000000" stroke="none" d="
M436.406982,311.673309 
	C437.475586,311.429718 438.948212,311.309326 440.699341,311.351624 
	C439.588898,311.608368 438.199982,311.702454 436.406982,311.673309 
z" data-index="34"></path>
<path fill="#89B0C6" opacity="1.000000" stroke="none" d="
M403.236206,311.291748 
	C404.424530,311.093689 405.896027,311.142761 407.676819,311.373413 
	C406.497253,311.549591 405.008301,311.544220 403.236206,311.291748 
z" data-index="35"></path>
<path fill="#89B0C6" opacity="1.000000" stroke="none" d="
M567.393066,311.778809 
	C568.476501,311.536407 569.969666,311.401520 571.733398,311.458252 
	C570.603577,311.728668 569.203247,311.807495 567.393066,311.778809 
z" data-index="36"></path>
<path fill="#A1B1D0" opacity="1.000000" stroke="none" d="
M595.359253,311.793030 
	C594.981201,311.776886 595.004456,311.423584 595.019043,311.247711 
	C596.429626,311.031647 597.825684,310.991455 599.634705,311.027893 
	C598.610901,311.339447 597.174072,311.574341 595.359253,311.793030 
z" data-index="37"></path>
<path fill="#89B0C6" opacity="1.000000" stroke="none" d="
M448.388306,311.677612 
	C449.169586,311.443359 450.336090,311.348999 451.752319,311.427063 
	C450.925842,311.672150 449.849701,311.744812 448.388306,311.677612 
z" data-index="38"></path>
<path fill="#89B0C6" opacity="1.000000" stroke="none" d="
M534.377991,311.772888 
	C535.161133,311.537720 536.338379,311.412506 537.762695,311.474365 
	C536.930542,311.735260 535.851257,311.809052 534.377991,311.772888 
z" data-index="39"></path>

<path fill="#A1B1D0" opacity="1.000000" stroke="none" d="
M621.133484,311.450287 
	C622.008240,311.203613 623.154541,311.134521 624.721436,311.173370 
	C623.896362,311.396820 622.650696,311.512329 621.133484,311.450287 
z" data-index="41"></path>
<path fill="#A1B1D0" opacity="1.000000" stroke="none" d="
M631.110657,311.442932 
	C631.695312,311.219482 632.525940,311.158051 633.759521,311.221313 
	C633.227173,311.432343 632.291870,311.518646 631.110657,311.442932 
z" data-index="42"></path>
<path fill="#89B0C6" opacity="1.000000" stroke="none" d="
M728.101685,488.234894 
	C728.580688,488.360809 729.194153,488.710022 729.854614,489.331604 
	C729.346436,489.222015 728.791260,488.840088 728.101685,488.234894 
z" data-index="43"></path>
<path fill="#70B1BA" opacity="1.000000" stroke="none" d="
M694.992188,507.655243 
	C694.438599,507.482269 693.775635,507.030579 693.091309,506.243011 
	C693.674133,506.396912 694.278442,506.886719 694.992188,507.655243 
z" data-index="44"></path>
<path fill="#89B0C6" opacity="1.000000" stroke="none" d="
M471.307861,311.709473 
	C471.538849,311.497009 472.106232,311.394012 472.849152,311.446716 
	C472.564545,311.674561 472.104401,311.746704 471.307861,311.709473 
z" data-index="45"></path>
<path fill="#89B0C6" opacity="1.000000" stroke="none" d="
M454.310486,311.680542 
	C454.542938,311.469330 455.108307,311.376068 455.847839,311.435791 
	C455.562439,311.658661 455.102936,311.728546 454.310486,311.680542 
z" data-index="46"></path>
<path fill="#89B0C6" opacity="1.000000" stroke="none" d="
M513.307922,311.753571 
	C513.537903,311.540741 514.105896,311.430115 514.849243,311.479248 
	C514.565125,311.711243 514.105469,311.783508 513.307922,311.753571 
z" data-index="47"></path>
<path fill="#5EA8B4" opacity="1.000000" stroke="none" d="
M557.672607,336.066650 
	C557.763428,336.485382 557.595398,337.073608 557.153381,337.819580 
	C557.057556,337.396881 557.235718,336.816528 557.672607,336.066650 
z" data-index="48"></path>
<path fill="#5EA8B4" opacity="1.000000" stroke="none" d="
M741.293579,308.012482 
	C741.256104,307.814209 741.482849,307.524384 741.976868,307.143738 
	C742.015381,307.342224 741.786621,307.631592 741.293579,308.012482 
z" data-index="49"></path>
<path fill="#70B1BA" opacity="1.000000" stroke="none" d="
M693.026978,505.695435 
	C692.799683,505.772644 692.517029,505.580444 692.130371,505.148438 
	C692.341492,505.081085 692.656616,505.253571 693.026978,505.695435 
z" data-index="50"></path>
<path fill="#70B1BA" opacity="1.000000" stroke="none" d="
M695.989929,508.781677 
	C695.798340,508.828552 695.519897,508.615387 695.135376,508.157898 
	C695.320557,508.116241 695.611816,508.318939 695.989929,508.781677 
z" data-index="51"></path>

<path fill="#89B0C6" opacity="1.000000" stroke="none" d="
M557.225098,311.704437 
	C557.184021,311.324738 557.473083,311.247040 557.933105,311.518066 
	C557.864258,311.685455 557.681274,311.732025 557.225098,311.704437 
z" data-index="53"></path>
<path fill="#89B0C6" opacity="1.000000" stroke="none" d="
M542.224915,311.729553 
	C542.242065,311.576385 542.532166,311.498199 542.934937,311.544617 
	C542.864319,311.714325 542.681091,311.759430 542.224915,311.729553 
z" data-index="54"></path>
</svg>